<?xml version="1.0" standalone="no"?><svg xmlns="http://www.w3.org/2000/svg" viewBox="0 0 1440 320"><path fill="#0099ff" fill-opacity="1" d="M0,64L18.5,80C36.9,96,74,128,111,144C147.7,160,185,160,222,133.3C258.5,107,295,53,332,42.7C369.2,32,406,64,443,90.7C480,117,517,139,554,138.7C590.8,139,628,117,665,96C701.5,75,738,53,775,58.7C812.3,64,849,96,886,133.3C923.1,171,960,213,997,224C1033.8,235,1071,213,1108,186.7C1144.6,160,1182,128,1218,106.7C1255.4,85,1292,75,1329,80C1366.2,85,1403,107,1422,117.3L1440,128L1440,320L1421.5,320C1403.1,320,1366,320,1329,320C1292.3,320,1255,320,1218,320C1181.5,320,1145,320,1108,320C1070.8,320,1034,320,997,320C960,320,923,320,886,320C849.2,320,812,320,775,320C738.5,320,702,320,665,320C627.7,320,591,320,554,320C516.9,320,480,320,443,320C406.2,320,369,320,332,320C295.4,320,258,320,222,320C184.6,320,148,320,111,320C73.8,320,37,320,18,320L0,320Z"></path></svg>